<?xml version="1.0" standalone="no"?>
<!DOCTYPE svg PUBLIC "-//W3C//DTD SVG 20010904//EN"
 "http://www.w3.org/TR/2001/REC-SVG-20010904/DTD/svg10.dtd">
<svg version="1.0" xmlns="http://www.w3.org/2000/svg"
 width="796.000000pt" height="1280.000000pt" viewBox="0 0 796.000000 1280.000000"
 preserveAspectRatio="xMidYMid meet">
<metadata>
Created by potrace 1.15, written by Peter Selinger 2001-2017
</metadata>
<g transform="translate(0.000000,1280.000000) scale(0.100000,-0.100000)"
fill="#000000" stroke="none">
<path d="M5480 12784 c-544 -65 -984 -300 -1135 -607 -32 -65 -47 -110 -51
-152 -18 -175 110 -377 329 -520 48 -31 181 -102 295 -157 569 -275 660 -322
755 -384 117 -76 249 -185 300 -247 60 -74 81 -125 81 -197 0 -87 -34 -153
-128 -246 -168 -167 -293 -242 -1171 -704 -471 -247 -724 -410 -869 -560 -96
-98 -131 -167 -131 -260 0 -121 50 -184 238 -296 129 -76 316 -140 727 -244
513 -131 640 -174 779 -264 119 -76 153 -149 114 -237 -32 -70 -101 -154 -303
-369 -212 -225 -296 -331 -363 -459 -78 -148 -92 -246 -52 -362 51 -146 171
-233 462 -335 l111 -39 22 20 c29 26 50 68 50 99 0 22 -7 26 -70 40 -106 24
-229 65 -293 97 -265 134 -223 314 180 760 267 296 338 393 373 506 33 109 21
224 -33 304 -60 89 -275 213 -492 284 -100 33 -333 92 -745 190 -376 89 -580
186 -580 274 0 35 45 104 106 162 113 108 413 291 833 509 715 370 1063 597
1223 799 153 192 185 361 102 530 -30 62 -59 97 -153 192 -180 180 -382 304
-781 479 -446 195 -559 256 -665 353 -119 108 -146 221 -85 344 145 291 673
526 1253 559 301 17 639 -95 712 -237 21 -40 18 -106 -7 -158 -107 -223 -576
-359 -830 -241 -35 17 -43 42 -24 78 15 30 92 102 108 102 20 0 5 40 -23 64
-29 25 -31 25 -61 10 -17 -9 -53 -38 -79 -64 -193 -193 59 -392 444 -350 119
13 250 50 332 93 82 43 204 165 239 241 92 195 -6 389 -251 502 -223 103 -485
135 -793 98z"/>
<path d="M5460 5453 c-284 -5 -835 -24 -960 -33 -74 -5 -238 -16 -365 -25
-1164 -81 -1989 -270 -2098 -480 -26 -50 -28 -146 -4 -191 29 -56 265 -190
415 -238 327 -103 812 -187 1387 -240 757 -71 1918 -99 2520 -62 143 9 337 21
430 26 259 17 606 50 627 61 24 13 22 44 -5 98 -43 88 -32 86 -389 72 -381
-14 -1678 -14 -2213 -1 -591 15 -1210 52 -1595 96 -316 35 -657 95 -855 149
-135 37 -171 55 -192 96 -19 35 2 48 164 102 397 131 1120 228 2223 297 757
47 1337 58 2115 41 441 -10 610 -19 841 -46 59 -7 61 -7 87 25 34 40 36 78 5
85 -302 65 -573 104 -908 129 -324 25 -936 44 -1230 39z"/>
<path d="M7822 5037 l-22 -12 -4 -315 c-6 -436 -38 -708 -127 -1070 -230 -933
-687 -1581 -1396 -1979 -268 -151 -637 -264 -1084 -332 -173 -27 -520 -36
-725 -20 -916 72 -1631 359 -2082 836 -215 227 -341 445 -418 725 -105 382
-119 704 -53 1225 28 222 28 254 0 276 -28 23 -162 27 -178 7 -11 -14 -57
-387 -73 -588 -6 -69 -12 -135 -15 -147 -6 -28 -203 -141 -399 -230 -472 -215
-757 -234 -948 -64 -59 52 -114 160 -128 251 -53 339 79 759 310 990 139 138
267 199 440 208 209 10 358 -66 476 -244 31 -47 63 -88 69 -91 17 -6 85 23 85
36 0 27 -46 122 -85 177 -85 119 -208 203 -350 239 -89 23 -291 20 -391 -5
-124 -31 -234 -92 -328 -181 -262 -247 -410 -622 -393 -994 11 -230 61 -360
181 -473 255 -238 671 -229 1201 28 66 32 154 79 195 104 l75 45 2 -32 c39
-517 163 -888 411 -1225 159 -218 415 -451 667 -609 701 -438 1766 -609 2693
-432 116 22 442 111 587 161 188 64 462 209 650 346 496 360 863 870 1069
1486 124 372 197 743 218 1118 10 180 9 238 -6 450 -20 272 -28 327 -47 339
-20 12 -50 11 -77 -4z"/>
<path d="M5615 5000 c-490 -14 -907 -41 -1235 -80 -209 -26 -391 -57 -403 -69
-11 -11 8 -74 28 -91 10 -9 66 -9 222 -1 863 45 2778 75 2828 44 17 -11 9 -12
-50 -13 -100 0 -880 -30 -1005 -38 l-105 -7 -3 -33 c-4 -38 23 -125 43 -142
35 -29 1254 65 1432 110 82 21 117 47 129 95 17 68 -27 98 -206 140 -340 79
-872 106 -1675 85z"/>
<path d="M2890 1202 c-279 -98 -464 -203 -586 -335 -295 -319 -93 -606 528
-752 125 -29 464 -79 663 -97 225 -20 1233 -17 1565 5 682 46 1070 91 1475
173 276 55 452 115 549 185 119 85 114 228 -12 327 -146 116 -572 219 -1024
248 l-108 7 -24 -54 c-14 -30 -28 -71 -31 -91 -6 -33 -4 -39 16 -47 13 -5 137
-19 276 -31 304 -26 433 -43 578 -80 120 -30 275 -86 275 -100 0 -15 -106 -60
-202 -85 -229 -60 -723 -118 -1363 -160 -984 -64 -1793 -75 -2280 -30 -590 55
-875 156 -852 302 7 43 61 117 134 183 111 101 241 177 491 284 91 39 170 79
175 87 15 23 -31 113 -58 116 -11 1 -94 -24 -185 -55z"/>
</g>
</svg>
